<svg width="100" height="100" viewBox="0 0 100 100" fill="none" xmlns="http://www.w3.org/2000/svg">
<circle cx="50" cy="50" r="50" fill="white"/>
<circle cx="49.5" cy="49.5" r="32.5" fill="#4AB44F"/>
<path d="M49.5 82C40.5345 82 32.398 78.3616 26.5182 72.4818C20.6384 66.602 17 58.4655 17 49.5C17 40.5345 20.6384 32.398 26.5182 26.5182C32.398 20.6384 40.5345 17 49.5 17C58.4655 17 66.602 20.6384 72.4818 26.5182C78.3616 32.398 82 40.5345 82 49.5C82 58.4655 78.3616 66.602 72.4818 72.4818C66.602 78.3616 58.4655 82 49.5 82ZM28.3604 70.6396C33.7643 76.0435 41.2407 79.3902 49.5 79.3902C57.7593 79.3902 65.2357 76.0435 70.6396 70.6396C76.0435 65.2357 79.3902 57.7593 79.3902 49.5C79.3902 41.2407 76.0435 33.7643 70.6396 28.3604C65.2357 22.9565 57.7593 19.6098 49.5 19.6098C41.2407 19.6098 33.7643 22.9565 28.3604 28.3604C22.9565 33.7643 19.6098 41.2407 19.6098 49.5C19.6098 57.7593 22.9565 65.2357 28.3604 70.6396ZM30.4636 41.0718C30.6171 41.0104 30.8167 40.9336 31.0316 40.8722C31.1545 40.8262 31.3694 40.7648 31.7378 40.6419C32.2905 40.4731 32.8739 40.3196 33.488 40.1507C34.056 40.0125 34.6701 39.859 35.3455 39.7055C39.9972 38.6615 44.833 38.1549 49.6228 38.3392C54.0749 38.5234 58.4962 39.3063 62.7487 40.8262C63.8847 41.2407 65.0361 41.7012 66.1722 42.2539C67.3082 42.7759 68.3829 43.3439 69.4268 43.9733C69.7185 44.1422 70.0409 44.1729 70.3325 44.0961C70.6396 44.0194 70.9006 43.8351 71.0694 43.5588C71.2383 43.2671 71.2844 42.9447 71.2076 42.6377C71.1308 42.346 70.9466 42.0697 70.6549 41.9008C69.5189 41.2253 68.3675 40.6112 67.2161 40.0739C66.0494 39.5213 64.8366 39.03 63.5624 38.5694C59.0642 36.9575 54.4433 36.1285 49.8377 35.9289C44.7716 35.714 39.7055 36.2667 34.8082 37.3566C33.7489 37.5869 32.7664 37.8479 31.9221 38.0782C30.9242 38.3699 30.1566 38.6155 29.6346 38.7997L29.6193 38.8151C29.3122 38.9379 29.082 39.1528 28.9591 39.4291C28.821 39.7208 28.8056 40.0432 28.9131 40.3503L28.9284 40.381C29.0513 40.6726 29.2662 40.9029 29.5425 41.0257C29.8342 41.1639 30.1566 41.1793 30.4636 41.0718ZM31.8299 43.3285C31.569 43.4206 31.4308 43.4667 31.3694 43.4974C30.3869 43.8505 29.3583 43.7891 28.4679 43.3899C27.5928 42.9754 26.8559 42.2385 26.4875 41.256L26.4568 41.1639V41.1486C26.1344 40.1967 26.2111 39.2142 26.5949 38.3545C26.9941 37.4795 27.7463 36.7426 28.7289 36.3741L28.821 36.3434C29.435 36.1285 30.2333 35.8521 31.2159 35.5912C32.0602 35.3455 33.0735 35.0846 34.2556 34.8236C39.3524 33.6875 44.6488 33.1195 49.9299 33.3498C54.8118 33.5494 59.6937 34.4244 64.4374 36.1285C65.727 36.589 67.0165 37.111 68.3061 37.7251C69.5803 38.3238 70.8085 38.9686 71.9752 39.6748C72.881 40.2121 73.4797 41.0564 73.7253 41.9929C73.9709 42.9447 73.8481 43.9733 73.3108 44.8791C72.7735 45.7848 71.9138 46.3836 70.9773 46.6138C70.0409 46.8595 69.0123 46.7367 68.1065 46.1993C67.1086 45.6006 66.0954 45.0633 65.0822 44.5874C64.069 44.1115 62.9943 43.6816 61.8736 43.2825C57.8668 41.8394 53.7064 41.1025 49.5307 40.9336C44.9558 40.7494 40.3503 41.2407 35.8982 42.2385C35.2995 42.3767 34.7008 42.5149 34.1327 42.6684C33.534 42.8219 32.9813 42.9754 32.4901 43.129C32.3212 43.175 32.0909 43.2518 31.8299 43.3285ZM34.1174 50.4825C34.1788 50.4672 34.2863 50.4058 34.4244 50.3444H34.4398C34.5319 50.2983 34.6393 50.2522 34.7929 50.1908C35.1153 50.0527 35.453 49.9299 35.8061 49.807C36.1592 49.6842 36.5276 49.5768 36.9421 49.4539C40.8415 48.364 45.401 47.9955 50.59 48.6403C55.2416 49.2083 60.4152 50.6207 66.0647 53.0463C66.3718 53.1691 66.7095 53.1691 66.9858 53.0463C67.2775 52.9388 67.5231 52.7085 67.646 52.4169C67.7841 52.1098 67.7688 51.7721 67.6613 51.4957C67.5538 51.2041 67.3236 50.9584 67.0165 50.8356C61.0753 48.2718 55.5947 46.8134 50.6053 46.23C45.2168 45.5853 40.427 45.9844 36.282 47.1358C35.5298 47.3507 34.885 47.5657 34.363 47.7652C33.7796 47.9802 33.3037 48.1951 32.966 48.3793C32.6743 48.5328 32.4901 48.7938 32.398 49.0855C32.3059 49.3772 32.3366 49.7149 32.4901 50.0066C32.6436 50.2983 32.9046 50.4979 33.1963 50.59C33.5033 50.6821 33.8257 50.6514 34.1174 50.4825ZM35.4991 52.7085L35.3455 52.77C34.4398 53.2766 33.3958 53.3533 32.4747 53.077C31.5383 52.8007 30.7093 52.1559 30.2026 51.2348C29.7114 50.3137 29.6346 49.2851 29.911 48.364C30.1873 47.4275 30.8167 46.5985 31.7378 46.0919C32.1523 45.8769 32.7204 45.616 33.4726 45.3396C34.0867 45.1094 34.7929 44.8637 35.5912 44.6488C40.0432 43.3899 45.1708 42.9601 50.9124 43.6509C56.1167 44.265 61.8429 45.7848 68.0298 48.4407C68.9969 48.8552 69.7031 49.6228 70.0716 50.5286C70.4247 51.419 70.44 52.4629 70.0409 53.4301C69.6264 54.3973 68.8588 55.1034 67.953 55.4565C67.0472 55.825 66.0187 55.8403 65.0515 55.4258C59.6323 53.1077 54.7043 51.7721 50.2829 51.2194C45.4471 50.6053 41.2253 50.9431 37.633 51.9563C37.2799 52.0484 36.9575 52.1559 36.6504 52.2633C36.3127 52.3708 36.021 52.4936 35.7754 52.5857C35.6679 52.6318 35.5758 52.6778 35.4991 52.7085ZM34.9924 59.5555C35.0538 59.5248 35.1767 59.4787 35.3302 59.4327L35.7447 59.2945C36.0671 59.1871 36.4355 59.0796 36.8347 58.9721C37.1878 58.88 37.5716 58.7879 38.0014 58.6804C42.0083 57.7593 46.23 57.4676 50.4518 58.051C54.3205 58.5883 58.2045 59.8318 61.9504 61.9811C62.2421 62.15 62.5645 62.1807 62.8562 62.0886C63.1632 62.0118 63.4242 61.8276 63.5931 61.5359C63.7466 61.2442 63.7926 60.9065 63.7005 60.6148C63.6238 60.3231 63.4242 60.0621 63.1325 59.8932C59.0949 57.5751 54.9499 56.2395 50.8356 55.6715C46.2914 55.042 41.778 55.3491 37.4641 56.347C36.7119 56.5158 36.0824 56.6693 35.5758 56.8229C34.9617 57.0071 34.4705 57.176 34.102 57.3141C33.795 57.4369 33.5647 57.6672 33.4419 57.9589C33.3191 58.2352 33.3037 58.5576 33.4265 58.88C33.5494 59.1871 33.7796 59.4173 34.0713 59.5402C34.3477 59.663 34.6854 59.6783 34.9924 59.5555ZM36.1592 61.889C36.0517 61.9197 35.975 61.9504 35.9289 61.9658C34.9617 62.3496 33.9178 62.3035 33.0274 61.9197C32.137 61.5205 31.4001 60.799 31.0163 59.8165C30.6325 58.8493 30.6786 57.8054 31.0624 56.915C31.4615 56.0246 32.183 55.2877 33.1656 54.9039C33.5647 54.7504 34.1174 54.5508 34.8543 54.3359C35.453 54.167 36.1285 53.9828 36.8807 53.8139C41.4863 52.7546 46.3222 52.4322 51.2041 53.1077C55.6408 53.7218 60.0928 55.1649 64.4221 57.6365C65.3432 58.1585 65.9419 58.9875 66.2029 59.9393C66.4639 60.8758 66.3564 61.9043 65.8344 62.8255V62.8101C65.3125 63.7312 64.4835 64.3453 63.547 64.5909C62.5952 64.8519 61.5666 64.7444 60.6608 64.2378C57.2067 62.2574 53.645 61.106 50.1141 60.6301C46.1993 60.0928 42.3 60.3538 38.5694 61.2135C38.2163 61.2903 37.8632 61.3824 37.5102 61.4745C37.1724 61.5666 36.85 61.6587 36.5276 61.7662L36.1592 61.889Z" fill="white"/>
</svg>
