<svg width="100" height="100" viewBox="0 0 100 100" fill="none" xmlns="http://www.w3.org/2000/svg">
<circle cx="50" cy="50" r="50" fill="white"/>
<path d="M52.3779 61.8568V24H59.8768C62.0397 31.1733 64.3991 34.2539 73 36.1428V45.0713C65.7415 44.5721 63.9567 43.2231 59.8768 38.9999L59.8768 66.1425C40.0995 95.0708 5.60423 51.8569 45.1596 44.357V51.8569C24.5375 53.2855 41.9744 78.9995 52.3779 61.8568Z" fill="#ABE9C3"/>
<path d="M49.6194 60.6728V25H56.3033C58.2311 31.7595 60.334 34.6623 68 36.4422V44.8556C61.5304 44.3853 59.9397 43.1141 56.3033 39.1345L56.3032 64.7112C38.6756 91.9706 7.92986 51.2498 43.1857 44.1825V51.2498C24.8052 52.5959 40.3467 76.8265 49.6194 60.6728Z" fill="#4AB44F"/>
</svg>
