<svg width="100" height="100" viewBox="0 0 100 100" fill="none" xmlns="http://www.w3.org/2000/svg">
<circle cx="50" cy="50" r="50" fill="white"/>
<mask id="path-2-outside-1" maskUnits="userSpaceOnUse" x="23" y="22" width="55" height="56" fill="black">
<rect fill="white" x="23" y="22" width="55" height="56"/>
<path d="M38.0243 68.8683C40.2124 70.2461 42.5034 71.2284 44.8588 71.8281C47.2785 72.4659 49.7884 72.6956 52.2853 72.5425C58.8753 72.1597 64.693 69.1745 68.7602 64.6328C72.8403 60.1039 75.1699 54.0313 74.7838 47.4866L74.7709 47.4356V47.4228C74.3719 40.9165 71.3601 35.1756 66.8038 31.157C62.2217 27.1256 56.0952 24.8164 49.5052 25.1864L49.4409 25.1992H49.428C42.8767 25.5947 37.0847 28.5799 33.0175 33.1089C28.9503 37.6378 26.6206 43.7104 27.0068 50.255V50.3188C27.1484 52.5641 27.5731 54.6691 28.2681 56.6593C29.0018 58.726 30.0057 60.6652 31.2799 62.464C31.4987 62.7702 31.5374 63.1657 31.3958 63.4846L27.187 73.6779L36.956 68.8045C37.3035 68.6387 37.7154 68.6642 38.0243 68.8683ZM55.7862 62.6936C52.3754 62.5023 47.7676 59.3001 44.0608 55.3453C40.3411 51.3777 37.458 46.5681 37.5352 43.2001C37.5095 42.4729 37.6125 41.6947 37.8184 40.8782C38.0243 40.0617 38.3332 39.2197 38.758 38.3395C38.8995 38.0078 39.054 37.7016 39.2085 37.4082C39.35 37.1402 39.5302 36.8341 39.7362 36.4896C39.8649 36.2855 40.0579 36.1324 40.2639 36.0431C41.5381 35.418 42.5163 35.1373 43.4687 35.2776C44.4855 35.4307 45.3093 36.0048 46.2489 37.1275C46.6994 37.6505 47.1241 38.2629 47.536 38.9518C47.9221 39.6025 48.2825 40.3169 48.6171 41.0696C48.9646 41.7202 49.0161 42.4729 48.7587 43.2766C48.5528 43.9528 48.1409 44.6672 47.5231 45.3944C47.3429 45.5985 47.1112 45.7261 46.8667 45.7644C46.7508 45.8026 46.6479 45.8537 46.5835 45.9174C46.4677 46.0195 46.3647 46.1981 46.2617 46.4533C46.2489 46.4915 46.236 46.5298 46.2231 46.5553C46.1845 46.6191 46.3261 46.6191 46.4291 46.8487C46.8667 47.8566 47.9607 49.2982 49.2221 50.6505C50.4705 51.99 51.8349 53.1893 52.8131 53.6996C53.0319 53.8144 53.019 53.9547 53.0833 53.9292C53.122 53.9037 53.1606 53.8909 53.1863 53.8782C53.4566 53.8016 53.6368 53.7123 53.7526 53.623C53.8299 53.5465 53.8813 53.4444 53.9328 53.3041C54.0101 53.0617 54.1516 52.8703 54.3447 52.7427V52.73C55.1041 52.1814 55.8506 51.8242 56.5456 51.6711C57.3565 51.5053 58.0773 51.5946 58.6951 51.9645C59.4545 52.36 60.1495 52.7683 60.7673 53.202C61.4109 53.6358 61.9901 54.1078 62.4791 54.5926C63.5346 55.6004 64.0494 56.4552 64.1266 57.463C64.191 58.4199 63.8306 59.3639 63.097 60.5886C62.9811 60.7928 62.8138 60.9331 62.6336 61.0224V61.0352C62.3376 61.1755 62.0158 61.3286 61.6683 61.4689C61.3465 61.6092 61.0247 61.7368 60.7287 61.8516C59.8149 62.1961 58.9396 62.4385 58.1288 62.5788C57.2922 62.7192 56.4942 62.7574 55.7862 62.6936ZM45.7212 53.8144C49.0933 57.412 53.1348 60.308 55.9278 60.4483H55.9922C56.507 60.5121 57.0991 60.4738 57.7426 60.359C58.4248 60.2442 59.1584 60.0401 59.9307 59.7594C60.2139 59.6446 60.4841 59.5425 60.7673 59.4149C60.9346 59.3384 61.1148 59.2619 61.3208 59.1598C61.7069 58.4836 61.8871 57.9989 61.8613 57.6289C61.8356 57.2334 61.5267 56.8124 60.9089 56.2C60.5099 55.8173 60.0208 55.4218 59.4673 55.0391C58.9139 54.6564 58.2961 54.2864 57.6268 53.9547V53.942C57.5882 53.9292 57.5496 53.9037 57.511 53.8782C57.4209 53.8144 57.2535 53.8144 57.0347 53.8654C56.713 53.9292 56.3526 54.1078 55.9407 54.3757C55.7734 54.7329 55.5417 55.0391 55.2457 55.2943C54.8853 55.626 54.4348 55.8428 53.8685 56.0214C53.2635 56.2383 52.5428 56.098 51.7576 55.6897C50.5478 55.0646 48.9646 53.6868 47.5488 52.1687C46.1459 50.6633 44.8974 48.992 44.344 47.7418C43.9836 46.9125 43.8935 46.1598 44.1895 45.573C44.4083 45.0499 44.6657 44.6289 45.0004 44.31C45.2964 44.0293 45.6182 43.838 45.9914 43.6976C46.3004 43.3021 46.5063 42.9322 46.5964 42.626C46.6736 42.4091 46.6736 42.2433 46.6221 42.1412C46.5964 42.1029 46.5835 42.0647 46.5578 42.0264C46.2617 41.312 45.9271 40.6613 45.5924 40.0872C45.2449 39.5259 44.8845 39.0156 44.5113 38.5691C43.945 37.8929 43.5331 37.5612 43.1341 37.4975C42.748 37.4464 42.2331 37.5995 41.5124 37.9312C41.4223 38.0971 41.3193 38.2757 41.2163 38.467C41.0619 38.7605 40.9203 39.0284 40.8044 39.2708C40.4569 40.0235 40.1866 40.7506 40.0193 41.414C39.852 42.0647 39.7748 42.6388 39.8005 43.1618V43.2128C39.7104 45.9685 42.3361 50.204 45.7212 53.8144ZM44.3054 73.9203C41.9242 73.3079 39.6075 72.3384 37.3808 70.9988L25.6167 76.8673C25.3336 77.0204 24.986 77.0459 24.6643 76.9183C24.1108 76.7014 23.8534 76.0636 24.0851 75.515L29.1691 63.2039C27.9335 61.3796 26.9424 59.4277 26.2216 57.361C25.4623 55.1922 24.986 52.8831 24.8445 50.4464C24.8316 50.4081 24.8316 50.3571 24.8316 50.306C24.4326 43.2001 26.9682 36.6044 31.3958 31.6673C35.8234 26.7428 42.1302 23.4769 49.2993 23.0431C49.3379 23.0431 49.3894 23.0304 49.4409 23.0304V23.0431C56.61 22.6349 63.2771 25.1481 68.2453 29.5495C73.2135 33.9253 76.5085 40.1893 76.9461 47.2825C76.9461 47.3335 76.959 47.3846 76.959 47.4228V47.4356C77.358 54.5416 74.8224 61.1372 70.3948 66.0744C65.9543 71.0116 59.6089 74.2775 52.4012 74.6985C49.6854 74.8516 46.9696 74.6092 44.3054 73.9203Z"/>
</mask>
<path d="M38.0243 68.8683C40.2124 70.2461 42.5034 71.2284 44.8588 71.8281C47.2785 72.4659 49.7884 72.6956 52.2853 72.5425C58.8753 72.1597 64.693 69.1745 68.7602 64.6328C72.8403 60.1039 75.1699 54.0313 74.7838 47.4866L74.7709 47.4356V47.4228C74.3719 40.9165 71.3601 35.1756 66.8038 31.157C62.2217 27.1256 56.0952 24.8164 49.5052 25.1864L49.4409 25.1992H49.428C42.8767 25.5947 37.0847 28.5799 33.0175 33.1089C28.9503 37.6378 26.6206 43.7104 27.0068 50.255V50.3188C27.1484 52.5641 27.5731 54.6691 28.2681 56.6593C29.0018 58.726 30.0057 60.6652 31.2799 62.464C31.4987 62.7702 31.5374 63.1657 31.3958 63.4846L27.187 73.6779L36.956 68.8045C37.3035 68.6387 37.7154 68.6642 38.0243 68.8683ZM55.7862 62.6936C52.3754 62.5023 47.7676 59.3001 44.0608 55.3453C40.3411 51.3777 37.458 46.5681 37.5352 43.2001C37.5095 42.4729 37.6125 41.6947 37.8184 40.8782C38.0243 40.0617 38.3332 39.2197 38.758 38.3395C38.8995 38.0078 39.054 37.7016 39.2085 37.4082C39.35 37.1402 39.5302 36.8341 39.7362 36.4896C39.8649 36.2855 40.0579 36.1324 40.2639 36.0431C41.5381 35.418 42.5163 35.1373 43.4687 35.2776C44.4855 35.4307 45.3093 36.0048 46.2489 37.1275C46.6994 37.6505 47.1241 38.2629 47.536 38.9518C47.9221 39.6025 48.2825 40.3169 48.6171 41.0696C48.9646 41.7202 49.0161 42.4729 48.7587 43.2766C48.5528 43.9528 48.1409 44.6672 47.5231 45.3944C47.3429 45.5985 47.1112 45.7261 46.8667 45.7644C46.7508 45.8026 46.6479 45.8537 46.5835 45.9174C46.4677 46.0195 46.3647 46.1981 46.2617 46.4533C46.2489 46.4915 46.236 46.5298 46.2231 46.5553C46.1845 46.6191 46.3261 46.6191 46.4291 46.8487C46.8667 47.8566 47.9607 49.2982 49.2221 50.6505C50.4705 51.99 51.8349 53.1893 52.8131 53.6996C53.0319 53.8144 53.019 53.9547 53.0833 53.9292C53.122 53.9037 53.1606 53.8909 53.1863 53.8782C53.4566 53.8016 53.6368 53.7123 53.7526 53.623C53.8299 53.5465 53.8813 53.4444 53.9328 53.3041C54.0101 53.0617 54.1516 52.8703 54.3447 52.7427V52.73C55.1041 52.1814 55.8506 51.8242 56.5456 51.6711C57.3565 51.5053 58.0773 51.5946 58.6951 51.9645C59.4545 52.36 60.1495 52.7683 60.7673 53.202C61.4109 53.6358 61.9901 54.1078 62.4791 54.5926C63.5346 55.6004 64.0494 56.4552 64.1266 57.463C64.191 58.4199 63.8306 59.3639 63.097 60.5886C62.9811 60.7928 62.8138 60.9331 62.6336 61.0224V61.0352C62.3376 61.1755 62.0158 61.3286 61.6683 61.4689C61.3465 61.6092 61.0247 61.7368 60.7287 61.8516C59.8149 62.1961 58.9396 62.4385 58.1288 62.5788C57.2922 62.7192 56.4942 62.7574 55.7862 62.6936ZM45.7212 53.8144C49.0933 57.412 53.1348 60.308 55.9278 60.4483H55.9922C56.507 60.5121 57.0991 60.4738 57.7426 60.359C58.4248 60.2442 59.1584 60.0401 59.9307 59.7594C60.2139 59.6446 60.4841 59.5425 60.7673 59.4149C60.9346 59.3384 61.1148 59.2619 61.3208 59.1598C61.7069 58.4836 61.8871 57.9989 61.8613 57.6289C61.8356 57.2334 61.5267 56.8124 60.9089 56.2C60.5099 55.8173 60.0208 55.4218 59.4673 55.0391C58.9139 54.6564 58.2961 54.2864 57.6268 53.9547V53.942C57.5882 53.9292 57.5496 53.9037 57.511 53.8782C57.4209 53.8144 57.2535 53.8144 57.0347 53.8654C56.713 53.9292 56.3526 54.1078 55.9407 54.3757C55.7734 54.7329 55.5417 55.0391 55.2457 55.2943C54.8853 55.626 54.4348 55.8428 53.8685 56.0214C53.2635 56.2383 52.5428 56.098 51.7576 55.6897C50.5478 55.0646 48.9646 53.6868 47.5488 52.1687C46.1459 50.6633 44.8974 48.992 44.344 47.7418C43.9836 46.9125 43.8935 46.1598 44.1895 45.573C44.4083 45.0499 44.6657 44.6289 45.0004 44.31C45.2964 44.0293 45.6182 43.838 45.9914 43.6976C46.3004 43.3021 46.5063 42.9322 46.5964 42.626C46.6736 42.4091 46.6736 42.2433 46.6221 42.1412C46.5964 42.1029 46.5835 42.0647 46.5578 42.0264C46.2617 41.312 45.9271 40.6613 45.5924 40.0872C45.2449 39.5259 44.8845 39.0156 44.5113 38.5691C43.945 37.8929 43.5331 37.5612 43.1341 37.4975C42.748 37.4464 42.2331 37.5995 41.5124 37.9312C41.4223 38.0971 41.3193 38.2757 41.2163 38.467C41.0619 38.7605 40.9203 39.0284 40.8044 39.2708C40.4569 40.0235 40.1866 40.7506 40.0193 41.414C39.852 42.0647 39.7748 42.6388 39.8005 43.1618V43.2128C39.7104 45.9685 42.3361 50.204 45.7212 53.8144ZM44.3054 73.9203C41.9242 73.3079 39.6075 72.3384 37.3808 70.9988L25.6167 76.8673C25.3336 77.0204 24.986 77.0459 24.6643 76.9183C24.1108 76.7014 23.8534 76.0636 24.0851 75.515L29.1691 63.2039C27.9335 61.3796 26.9424 59.4277 26.2216 57.361C25.4623 55.1922 24.986 52.8831 24.8445 50.4464C24.8316 50.4081 24.8316 50.3571 24.8316 50.306C24.4326 43.2001 26.9682 36.6044 31.3958 31.6673C35.8234 26.7428 42.1302 23.4769 49.2993 23.0431C49.3379 23.0431 49.3894 23.0304 49.4409 23.0304V23.0431C56.61 22.6349 63.2771 25.1481 68.2453 29.5495C73.2135 33.9253 76.5085 40.1893 76.9461 47.2825C76.9461 47.3335 76.959 47.3846 76.959 47.4228V47.4356C77.358 54.5416 74.8224 61.1372 70.3948 66.0744C65.9543 71.0116 59.6089 74.2775 52.4012 74.6985C49.6854 74.8516 46.9696 74.6092 44.3054 73.9203Z" fill="#4AB44F"/>
<path d="M38.0243 68.8683C40.2124 70.2461 42.5034 71.2284 44.8588 71.8281C47.2785 72.4659 49.7884 72.6956 52.2853 72.5425C58.8753 72.1597 64.693 69.1745 68.7602 64.6328C72.8403 60.1039 75.1699 54.0313 74.7838 47.4866L74.7709 47.4356V47.4228C74.3719 40.9165 71.3601 35.1756 66.8038 31.157C62.2217 27.1256 56.0952 24.8164 49.5052 25.1864L49.4409 25.1992H49.428C42.8767 25.5947 37.0847 28.5799 33.0175 33.1089C28.9503 37.6378 26.6206 43.7104 27.0068 50.255V50.3188C27.1484 52.5641 27.5731 54.6691 28.2681 56.6593C29.0018 58.726 30.0057 60.6652 31.2799 62.464C31.4987 62.7702 31.5374 63.1657 31.3958 63.4846L27.187 73.6779L36.956 68.8045C37.3035 68.6387 37.7154 68.6642 38.0243 68.8683ZM55.7862 62.6936C52.3754 62.5023 47.7676 59.3001 44.0608 55.3453C40.3411 51.3777 37.458 46.5681 37.5352 43.2001C37.5095 42.4729 37.6125 41.6947 37.8184 40.8782C38.0243 40.0617 38.3332 39.2197 38.758 38.3395C38.8995 38.0078 39.054 37.7016 39.2085 37.4082C39.35 37.1402 39.5302 36.8341 39.7362 36.4896C39.8649 36.2855 40.0579 36.1324 40.2639 36.0431C41.5381 35.418 42.5163 35.1373 43.4687 35.2776C44.4855 35.4307 45.3093 36.0048 46.2489 37.1275C46.6994 37.6505 47.1241 38.2629 47.536 38.9518C47.9221 39.6025 48.2825 40.3169 48.6171 41.0696C48.9646 41.7202 49.0161 42.4729 48.7587 43.2766C48.5528 43.9528 48.1409 44.6672 47.5231 45.3944C47.3429 45.5985 47.1112 45.7261 46.8667 45.7644C46.7508 45.8026 46.6479 45.8537 46.5835 45.9174C46.4677 46.0195 46.3647 46.1981 46.2617 46.4533C46.2489 46.4915 46.236 46.5298 46.2231 46.5553C46.1845 46.6191 46.3261 46.6191 46.4291 46.8487C46.8667 47.8566 47.9607 49.2982 49.2221 50.6505C50.4705 51.99 51.8349 53.1893 52.8131 53.6996C53.0319 53.8144 53.019 53.9547 53.0833 53.9292C53.122 53.9037 53.1606 53.8909 53.1863 53.8782C53.4566 53.8016 53.6368 53.7123 53.7526 53.623C53.8299 53.5465 53.8813 53.4444 53.9328 53.3041C54.0101 53.0617 54.1516 52.8703 54.3447 52.7427V52.73C55.1041 52.1814 55.8506 51.8242 56.5456 51.6711C57.3565 51.5053 58.0773 51.5946 58.6951 51.9645C59.4545 52.36 60.1495 52.7683 60.7673 53.202C61.4109 53.6358 61.9901 54.1078 62.4791 54.5926C63.5346 55.6004 64.0494 56.4552 64.1266 57.463C64.191 58.4199 63.8306 59.3639 63.097 60.5886C62.9811 60.7928 62.8138 60.9331 62.6336 61.0224V61.0352C62.3376 61.1755 62.0158 61.3286 61.6683 61.4689C61.3465 61.6092 61.0247 61.7368 60.7287 61.8516C59.8149 62.1961 58.9396 62.4385 58.1288 62.5788C57.2922 62.7192 56.4942 62.7574 55.7862 62.6936ZM45.7212 53.8144C49.0933 57.412 53.1348 60.308 55.9278 60.4483H55.9922C56.507 60.5121 57.0991 60.4738 57.7426 60.359C58.4248 60.2442 59.1584 60.0401 59.9307 59.7594C60.2139 59.6446 60.4841 59.5425 60.7673 59.4149C60.9346 59.3384 61.1148 59.2619 61.3208 59.1598C61.7069 58.4836 61.8871 57.9989 61.8613 57.6289C61.8356 57.2334 61.5267 56.8124 60.9089 56.2C60.5099 55.8173 60.0208 55.4218 59.4673 55.0391C58.9139 54.6564 58.2961 54.2864 57.6268 53.9547V53.942C57.5882 53.9292 57.5496 53.9037 57.511 53.8782C57.4209 53.8144 57.2535 53.8144 57.0347 53.8654C56.713 53.9292 56.3526 54.1078 55.9407 54.3757C55.7734 54.7329 55.5417 55.0391 55.2457 55.2943C54.8853 55.626 54.4348 55.8428 53.8685 56.0214C53.2635 56.2383 52.5428 56.098 51.7576 55.6897C50.5478 55.0646 48.9646 53.6868 47.5488 52.1687C46.1459 50.6633 44.8974 48.992 44.344 47.7418C43.9836 46.9125 43.8935 46.1598 44.1895 45.573C44.4083 45.0499 44.6657 44.6289 45.0004 44.31C45.2964 44.0293 45.6182 43.838 45.9914 43.6976C46.3004 43.3021 46.5063 42.9322 46.5964 42.626C46.6736 42.4091 46.6736 42.2433 46.6221 42.1412C46.5964 42.1029 46.5835 42.0647 46.5578 42.0264C46.2617 41.312 45.9271 40.6613 45.5924 40.0872C45.2449 39.5259 44.8845 39.0156 44.5113 38.5691C43.945 37.8929 43.5331 37.5612 43.1341 37.4975C42.748 37.4464 42.2331 37.5995 41.5124 37.9312C41.4223 38.0971 41.3193 38.2757 41.2163 38.467C41.0619 38.7605 40.9203 39.0284 40.8044 39.2708C40.4569 40.0235 40.1866 40.7506 40.0193 41.414C39.852 42.0647 39.7748 42.6388 39.8005 43.1618V43.2128C39.7104 45.9685 42.3361 50.204 45.7212 53.8144ZM44.3054 73.9203C41.9242 73.3079 39.6075 72.3384 37.3808 70.9988L25.6167 76.8673C25.3336 77.0204 24.986 77.0459 24.6643 76.9183C24.1108 76.7014 23.8534 76.0636 24.0851 75.515L29.1691 63.2039C27.9335 61.3796 26.9424 59.4277 26.2216 57.361C25.4623 55.1922 24.986 52.8831 24.8445 50.4464C24.8316 50.4081 24.8316 50.3571 24.8316 50.306C24.4326 43.2001 26.9682 36.6044 31.3958 31.6673C35.8234 26.7428 42.1302 23.4769 49.2993 23.0431C49.3379 23.0431 49.3894 23.0304 49.4409 23.0304V23.0431C56.61 22.6349 63.2771 25.1481 68.2453 29.5495C73.2135 33.9253 76.5085 40.1893 76.9461 47.2825C76.9461 47.3335 76.959 47.3846 76.959 47.4228V47.4356C77.358 54.5416 74.8224 61.1372 70.3948 66.0744C65.9543 71.0116 59.6089 74.2775 52.4012 74.6985C49.6854 74.8516 46.9696 74.6092 44.3054 73.9203Z" stroke="#4AB44F" mask="url(#path-2-outside-1)"/>
</svg>
