<svg width="100" height="100" viewBox="0 0 100 100" fill="none" xmlns="http://www.w3.org/2000/svg">
<circle cx="50" cy="50" r="50" fill="white"/>
<g clip-path="url(#clip0)">
<path d="M41.766 45.3517C42.388 44.7298 43.0779 44.217 43.8117 43.8118C47.9016 41.5579 53.1461 42.7564 55.7755 46.7429L52.5936 49.9233C51.6813 47.8422 49.416 46.6579 47.1621 47.1622C46.3135 47.352 45.5075 47.7756 44.8487 48.4344L38.7514 54.5345C36.8998 56.3861 36.8998 59.398 38.7514 61.2495C40.603 63.1011 43.6148 63.1011 45.4664 61.2495L47.3463 59.3696C49.0562 60.0482 50.8894 60.3188 52.6999 60.1842L48.5505 64.3336C44.9932 67.8909 39.226 67.8909 35.6687 64.3336C32.1115 60.7764 32.1115 55.0091 35.6687 51.4519L41.766 45.3517V45.3517ZM51.4504 35.6674L47.301 39.8168C49.11 39.6808 50.9446 39.9528 52.6545 40.63L54.533 38.7515C56.3846 36.8999 59.3965 36.8999 61.248 38.7515C63.0996 40.603 63.0996 43.6149 61.248 45.4665L55.1493 51.5652C53.292 53.4225 50.276 53.4069 48.4343 51.5652C48.005 51.136 47.6353 50.6019 47.4044 50.0763L44.2225 53.2567C44.5569 53.7639 44.904 54.2016 45.3502 54.6479C46.5005 55.7982 47.9654 56.6553 49.6512 57.0619C51.8357 57.5875 54.176 57.297 56.1863 56.1878C56.9201 55.7826 57.61 55.2698 58.232 54.6479L64.3293 48.5491C67.888 44.9919 67.888 39.2246 64.3307 35.6674C60.7735 32.1115 55.0076 32.1115 51.4504 35.6674V35.6674Z" fill="#4AB44F"/>
</g>
<defs>
<clipPath id="clip0">
<rect width="34" height="34" fill="white" transform="translate(33 33)"/>
</clipPath>
</defs>
</svg>
