<svg width="100" height="100" viewBox="0 0 100 100" fill="none" xmlns="http://www.w3.org/2000/svg">
<circle cx="50" cy="50" r="50" fill="white"/>
<path d="M68.8578 45.0443L68.8573 45.0438C67.153 43.3292 64.8002 42.26 62.21 42.26C61.7109 42.26 61.3266 42.2575 61.0082 42.255C60.949 42.2545 60.8921 42.2541 60.8371 42.2536C60.5971 42.2517 60.3935 42.25 60.2017 42.25C60.2011 42.25 60.2006 42.25 60.2 42.25L60.162 42.2495C58.2953 42.2249 56.9724 42.2075 55.864 42.4561C54.883 42.6761 54.0767 43.1018 53.2 43.8816V43.4C53.2 42.7958 52.7219 42.3 52.11 42.3H42.94C42.3319 42.3 41.84 42.7919 41.84 43.4V70.49C41.84 71.0981 42.3319 71.59 42.94 71.59H52.11C52.7219 71.59 53.2 71.0942 53.2 70.49V53.6667C53.3148 52.8275 53.7411 52.0772 54.3553 51.5276C54.9916 50.976 55.8235 50.64 56.73 50.64C57.7018 50.64 58.588 51.0322 59.2219 51.6755L59.2245 51.6781C59.8678 52.312 60.26 53.1982 60.26 54.17V70.49C60.26 71.0981 60.7519 71.59 61.36 71.59H70.53C71.1381 71.59 71.63 71.0981 71.63 70.49V51.73C71.63 49.1402 70.5612 46.7681 68.8578 45.0443ZM37.7376 30.4641L37.7368 30.4632C36.6819 29.4084 35.2191 28.75 33.6 28.75C31.9802 28.75 30.528 29.4088 29.4641 30.4624L29.4641 30.4623L29.4624 30.4641C28.4087 31.5282 27.75 32.9904 27.75 34.6C27.75 36.2191 28.4084 37.6819 29.4632 38.7368L29.4641 38.7376C30.528 39.7912 31.9802 40.45 33.6 40.45C35.2191 40.45 36.6819 39.7916 37.7368 38.7368C38.7916 37.6819 39.45 36.2191 39.45 34.6C39.45 32.9904 38.7913 31.5282 37.7376 30.4641ZM36.182 32.0155L36.1832 32.0168C36.849 32.6825 37.26 33.59 37.26 34.6C37.26 35.611 36.8483 36.5275 36.1845 37.182L36.1845 37.182L36.182 37.1845C35.5275 37.8483 34.611 38.26 33.6 38.26C32.59 38.26 31.6825 37.849 31.0168 37.1832L31.0155 37.182C30.3529 36.5287 29.95 35.6126 29.95 34.6C29.95 33.5883 30.3522 32.6814 31.0168 32.0168C31.6814 31.3522 32.5883 30.95 33.6 30.95C34.6126 30.95 35.5287 31.3529 36.182 32.0155ZM52.9051 49.8821L52.904 49.883C51.8853 50.7874 51.1853 52.0456 51.0237 53.4725C51.0096 53.53 51.0099 53.5812 51.01 53.605C51.01 53.6068 51.01 53.6085 51.01 53.61V69.39H44.03V44.49H51.01V46.69C51.01 47.2981 51.5019 47.79 52.11 47.79C52.4854 47.79 52.8067 47.5976 52.9999 47.3205C54.2413 45.807 55.0589 45.0954 56.027 44.7478C57.0123 44.394 58.1792 44.4048 60.1766 44.43C60.9061 44.44 61.708 44.45 62.21 44.45C64.1897 44.45 65.9968 45.2707 67.3026 46.5861L67.48 46.41L67.3026 46.5861C68.6182 47.9114 69.43 49.7389 69.43 51.73V69.39H62.46V54.17C62.46 52.5903 61.8112 51.1576 60.7768 50.1232C59.7424 49.0888 58.3097 48.44 56.73 48.44C55.2771 48.44 53.929 48.9836 52.9051 49.8821ZM38.19 42.3H29.02C28.4119 42.3 27.92 42.7919 27.92 43.4V70.49C27.92 71.0981 28.4119 71.59 29.02 71.59H38.19C38.79 71.59 39.28 71.0961 39.28 70.49V43.4C39.28 42.7939 38.79 42.3 38.19 42.3ZM30.11 69.39V44.49H37.09V69.39H30.11Z" fill="#4AB44F" stroke="#4AB44F" stroke-width="0.5"/>
</svg>
