<svg width="100" height="100" viewBox="0 0 100 100" fill="none" xmlns="http://www.w3.org/2000/svg">
<circle cx="50" cy="50" r="50" fill="white"/>
<path d="M50.0161 43.9971H45.5241C45.465 43.9971 45.4059 43.9971 45.3567 43.9872C42.0567 43.5904 39.0325 42.3402 36.5107 40.852C33.5555 39.1157 31.2406 36.9528 29.9107 35.4645C29.7433 36.298 29.694 37.3893 29.8615 38.6196C30.0683 40.1872 30.6397 41.9632 31.7725 43.7392C31.8218 43.8285 31.8612 43.888 31.9006 43.9376C32.0286 44.1063 32.1173 44.2253 32.1764 44.4535C32.3931 45.2969 32.1173 45.5449 31.1125 45.8128L31.0731 45.8227C30.5904 45.9418 30.0191 45.9914 29.4379 45.9517H29.3689C29.6842 47.0034 30.1866 48.0749 30.8564 49.1167C31.8218 50.6149 33.1319 52.0535 34.708 53.3235L34.7277 53.3433C34.777 53.3731 34.8262 53.4128 34.8656 53.4426C35.1119 53.6211 35.2695 53.7303 35.3582 54.0974C35.5651 54.9606 35.2498 55.1193 34.383 55.3376C33.8018 55.4765 33.2304 55.5459 32.7083 55.5459H32.6394C32.9842 56.1016 33.5161 56.7266 34.1465 57.3616C35.8507 59.078 38.1558 60.7151 39.4265 61.3997L39.6038 61.489C40.0668 61.7172 40.3032 61.8263 40.3032 62.4415V62.4514C40.2934 62.9574 40.1062 63.0963 39.7122 63.384L39.5349 63.513C37.4564 65.0707 35.0627 65.8843 32.797 66.301C32.0188 66.4498 31.2603 66.5391 30.5412 66.6086C32.7379 67.571 34.9543 68.2556 37.151 68.6723C42.7265 69.714 48.174 69.0295 52.9319 66.8169C57.6898 64.6044 61.768 60.8739 64.5951 55.8337C66.2303 52.9167 67.4518 49.5533 68.1512 45.793C69.1265 40.5047 69.3924 40.217 71.5399 37.8656L72.0521 37.31H70.6435C70.1411 37.31 69.7274 36.8933 69.7274 36.3773C69.7274 36.1987 69.7766 36.0301 69.8653 35.8912L71.3921 33.4604C70.082 33.6588 69.0477 33.7382 68.2005 33.7283C66.8509 33.7183 65.9742 33.4901 65.3241 33.1429C65.2551 33.1032 65.196 33.0536 65.1369 33.004C63.2456 31.5852 61.3148 30.9105 59.522 30.851C57.8474 30.7914 56.2811 31.2677 54.971 32.1408C53.6608 33.0238 52.6068 34.3037 51.9567 35.8713C51.2178 37.6572 51.011 39.8102 51.5429 42.1319V42.1716C51.5626 42.241 51.602 42.3601 51.6217 42.4593L51.6316 42.499C51.7596 42.9851 51.8187 43.2431 51.4641 43.6499C51.139 44.0269 50.8829 44.017 50.3707 43.9971H50.0161ZM45.5635 42.1418H49.6614C49.159 39.5721 49.425 37.181 50.2623 35.1669C51.0504 33.252 52.3408 31.6844 53.9563 30.6029C55.5719 29.5215 57.5125 28.9361 59.5811 29.0055C61.7286 29.075 64.0238 29.8588 66.2303 31.5256C66.6441 31.734 67.245 31.8729 68.2103 31.8828C69.3235 31.8927 70.8799 31.7142 73.1062 31.2776V31.2875C73.3229 31.2379 73.5593 31.2776 73.7662 31.4066C74.1996 31.6844 74.3276 32.2499 74.0518 32.6865L72.3082 35.4645H74.0321C74.2587 35.4546 74.4951 35.5241 74.6823 35.6828C75.0664 36.0201 75.1058 36.6055 74.7808 36.9925C74.0026 37.9053 73.3918 38.5799 72.8894 39.1256C71.0572 41.1298 70.8405 41.3679 69.9539 46.1303C69.225 50.089 67.9247 53.641 66.1909 56.7365C63.1668 62.1339 58.8029 66.1323 53.7002 68.4937C48.6074 70.865 42.7758 71.6091 36.8161 70.4879C33.3979 69.843 29.9403 68.583 26.5516 66.6681C26.2266 66.5292 26 66.2018 26 65.8248C26 65.3088 26.4137 64.8921 26.9161 64.8921C28.4134 64.8921 30.4131 64.8624 32.4719 64.4853C34.2352 64.1579 36.0674 63.5726 37.7125 62.5308C36.294 61.6378 34.3436 60.1793 32.8463 58.6613C31.4869 57.2922 30.4624 55.8237 30.4033 54.5538C30.3934 54.4546 30.4033 54.3454 30.4328 54.2363C30.5609 53.7402 31.0633 53.4426 31.546 53.5715C31.7528 53.6311 32.0188 53.6708 32.3143 53.6906C31.1322 52.5794 30.1176 51.3689 29.3197 50.1287C28.2164 48.4123 27.5072 46.6264 27.251 44.8802C27.2313 44.7314 27.2412 44.5627 27.3003 44.4039C27.4875 43.9376 28.0292 43.6995 28.4922 43.888C28.8075 44.017 29.1719 44.0864 29.5463 44.1063C29.6448 44.1063 29.7433 44.1162 29.8418 44.1162C28.7976 42.2906 28.2558 40.4849 28.0391 38.8677C27.714 36.4369 28.1376 34.3732 28.7484 33.2917C28.8961 33.004 29.1818 32.8055 29.5167 32.7758C30.0289 32.746 30.4624 33.133 30.4919 33.6489C30.5116 33.9068 33.2206 36.7841 37.4268 39.2546C39.7713 40.6238 42.5492 41.7846 45.5635 42.1418Z" fill="#4AB44F" stroke="#4AB44F" stroke-width="0.5"/>
</svg>
