<svg width="100" height="100" viewBox="0 0 100 100" fill="none" xmlns="http://www.w3.org/2000/svg">
<circle cx="50" cy="50" r="50" fill="white"/>
<path d="M45.2836 47.2111H39.9632V53.0902L45.2836 53.1018C45.818 53.1018 46.2594 53.53 46.2594 54.0739L46.2711 75.0442H52.1607V54.0739C52.1607 53.53 52.6021 53.0902 53.1481 53.0902H60.0368V47.2111H53.1481C52.6021 47.2111 52.1607 46.7714 52.1607 46.2274C52.1607 43.7045 52.1607 41.8644 52.3233 40.441C52.4976 38.8555 52.8809 37.8023 53.6709 37.0732C53.6941 37.0616 53.7173 37.0385 53.7406 37.0154C54.4259 36.4136 55.332 36.1127 56.5866 35.9738C57.516 35.8696 58.6428 35.8465 60.0368 35.8465V29.9674C56.6215 29.9674 53.9961 29.9906 52.0329 30.222C50.0581 30.465 48.7686 30.9164 47.9671 31.7959C47.1423 32.7102 46.7241 34.1453 46.5034 36.3557C46.2594 38.705 46.2594 41.9339 46.2594 46.2274C46.2594 46.7714 45.818 47.2111 45.2836 47.2111ZM38.9874 45.2437H44.2962C44.2962 41.4131 44.3195 38.4735 44.5518 36.1705C44.819 33.5319 45.3766 31.7381 46.515 30.4882C47.6767 29.2036 49.3379 28.5786 51.8006 28.2778C54.0774 28 57.0513 28 61.0126 28C61.5586 28 62 28.4398 62 28.9837V36.8186C62 37.3625 61.5586 37.8023 61.0126 37.8023C59.2004 37.8023 57.8064 37.8023 56.7957 37.918C55.9593 38.0106 55.3901 38.1726 55.0416 38.4735L55.0068 38.5083C54.6002 38.8786 54.3911 39.5498 54.2749 40.6608C54.1471 41.7603 54.1355 43.2648 54.1355 45.2437H61.0126C61.5586 45.2437 62 45.6835 62 46.2274V54.0739C62 54.6063 61.5586 55.0461 61.0126 55.0461H54.1355V76.0163H54.1239C54.1239 76.5602 53.6825 77 53.1481 77L45.2836 76.9884C44.7493 76.9884 44.3078 76.5602 44.3078 76.0163L44.2962 55.0461H38.9874C38.4414 55.0461 38 54.6063 38 54.0739V46.2274C38 45.6835 38.4414 45.2437 38.9874 45.2437Z" fill="#4AB44F" stroke="#4AB44F"/>
</svg>
