<svg width="100" height="100" viewBox="0 0 100 100" fill="none" xmlns="http://www.w3.org/2000/svg">
<circle cx="50" cy="50" r="50" fill="white"/>
<g clip-path="url(#clip0)">
<path opacity="0.8" d="M78.0056 69.4923C78.0063 70.6109 77.7866 71.7186 77.3589 72.7522C76.9312 73.7857 76.304 74.7248 75.5131 75.5157C74.7222 76.3067 73.7831 76.9339 72.7496 77.3617C71.7161 77.7894 70.6084 78.0091 69.49 78.0084H30.5101C29.392 78.0084 28.285 77.7881 27.2521 77.36C26.2193 76.932 25.2809 76.3046 24.4906 75.5138C23.7003 74.7229 23.0735 73.784 22.6462 72.7509C22.2188 71.7177 21.9993 70.6104 22 69.4923V30.5105C22 28.2534 22.8966 26.0887 24.4925 24.4927C26.0885 22.8966 28.253 22 30.5101 22H69.49C70.608 21.9993 71.7152 22.2189 72.7483 22.6462C73.7815 23.0736 74.7203 23.7003 75.5111 24.4907C76.3019 25.281 76.9293 26.2195 77.3573 27.2524C77.7853 28.2853 78.0056 29.3924 78.0056 30.5105V69.4923Z" fill="#26A52C"/>
<path d="M50.4144 44.2913C46.8021 44.2913 43.873 47.1282 43.873 50.6315C43.873 54.1348 46.8021 56.9688 50.4144 56.9688C54.0268 56.9688 56.9559 54.1292 56.9559 50.6315C56.9559 47.1338 54.0268 44.2913 50.4144 44.2913ZM62.9877 48.1867H60.1202C60.399 49.094 60.5406 50.0379 60.5403 50.9871C60.5403 56.4031 56.0066 60.7886 50.4144 60.7886C44.8223 60.7886 40.2886 56.3975 40.2886 50.9871C40.289 50.038 40.4305 49.0942 40.7087 48.1867H37.7208V61.9452C37.7215 62.2878 37.8581 62.6162 38.1007 62.8582C38.3432 63.1002 38.6719 63.2362 39.0145 63.2362H61.6968C62.0394 63.2362 62.368 63.1002 62.6106 62.8582C62.8531 62.6162 62.9898 62.2878 62.9905 61.9452L62.9877 48.1867ZM57.8268 38.0296C57.4376 38.0311 57.0648 38.1865 56.7899 38.462C56.5149 38.7375 56.3602 39.1106 56.3594 39.4998V43.0031C56.3602 43.3921 56.515 43.7649 56.79 44.0399C57.065 44.315 57.4378 44.4698 57.8268 44.4706H61.5063C61.8953 44.4698 62.2681 44.315 62.5431 44.0399C62.8181 43.7649 62.973 43.3921 62.9737 43.0031V39.4998C62.973 39.1106 62.8182 38.7375 62.5433 38.462C62.2683 38.1865 61.8955 38.0311 61.5063 38.0296H57.8268ZM38.2808 34.4143H62.4892C63.5965 34.4194 64.6569 34.8616 65.4398 35.6445C66.2228 36.4275 66.6649 37.488 66.6701 38.5953V62.8049C66.6642 63.9117 66.2217 64.9715 65.4389 65.7538C64.656 66.5362 63.596 66.978 62.4892 66.9831H38.2808C37.1741 66.978 36.1141 66.5362 35.3312 65.7538C34.5484 64.9715 34.1059 63.9117 34.1 62.8049V38.5953C34.1052 37.488 34.5473 36.4275 35.3302 35.6445C36.1132 34.8616 37.1736 34.4194 38.2808 34.4143" fill="white"/>
</g>
<defs>
<clipPath id="clip0">
<rect width="56" height="56" fill="white" transform="translate(22 22)"/>
</clipPath>
</defs>
</svg>
